<?xml version="1.0" standalone="no"?>
<!DOCTYPE svg PUBLIC "-//W3C//DTD SVG 20010904//EN"
 "http://www.w3.org/TR/2001/REC-SVG-20010904/DTD/svg10.dtd">
<svg version="1.0" xmlns="http://www.w3.org/2000/svg"
 width="864.000000pt" height="868.000000pt" viewBox="0 0 864.000000 868.000000"
 preserveAspectRatio="xMidYMid meet">

<g transform="translate(0.000000,868.000000) scale(0.100000,-0.100000)"
fill="#3c3c3c" stroke="none">
<path d="M2519 8246 c-2 -3 -56 -9 -119 -15 -109 -10 -325 -57 -369 -81 -12
-6 -21 -15 -21 -20 0 -14 33 -46 81 -75 139 -88 710 -545 769 -616 3 -3 46
-40 95 -82 118 -99 441 -417 495 -486 52 -68 45 -76 -72 -84 -110 -7 -217 -36
-346 -94 -167 -74 -219 -108 -327 -217 -107 -108 -157 -185 -193 -298 -42
-129 -47 -169 -46 -358 0 -153 4 -203 23 -290 46 -218 105 -347 244 -538 146
-202 455 -499 761 -731 341 -258 671 -622 902 -993 16 -27 37 -48 46 -48 9 0
62 59 125 141 59 78 140 181 178 229 39 48 102 129 140 180 39 51 102 131 140
179 39 47 104 131 145 186 41 55 107 139 145 187 39 49 91 116 117 150 26 35
79 104 117 153 39 50 109 140 156 200 47 61 116 148 153 194 37 47 110 141
162 211 52 69 116 151 142 181 25 30 82 103 127 162 44 60 107 141 139 180 33
40 103 130 157 201 53 71 118 155 144 186 50 62 135 172 203 262 24 31 89 115
146 187 56 72 102 135 102 141 0 7 -285 10 -898 10 -887 0 -899 0 -917 20 -10
11 -23 28 -29 39 -6 10 -30 42 -53 72 -23 30 -69 90 -102 134 -68 92 -347 370
-436 435 -33 24 -89 69 -125 100 -36 31 -81 68 -101 81 -146 98 -215 142 -291
183 -49 25 -88 44 -88 41 0 -4 -7 1 -16 10 -9 9 -21 14 -27 12 -7 -2 -18 4
-27 14 -37 42 -303 153 -505 211 -38 11 -77 24 -86 29 -21 11 -232 64 -334 84
-130 25 -348 45 -489 45 -73 0 -135 -2 -137 -4z m396 -174 c252 -39 519 -110
745 -198 127 -50 448 -217 578 -301 211 -136 396 -285 568 -457 178 -179 264
-278 330 -384 21 -35 51 -80 65 -101 l27 -38 128 -6 c71 -4 436 -7 812 -7 476
0 682 -3 682 -11 0 -6 -5 -20 -12 -32 -16 -32 -125 -176 -163 -217 -18 -19
-75 -91 -126 -160 -51 -69 -113 -150 -139 -180 -25 -30 -79 -99 -119 -152 -39
-54 -127 -167 -195 -252 -68 -84 -142 -180 -164 -212 -22 -33 -64 -86 -93
-119 -29 -33 -91 -112 -138 -175 -46 -63 -114 -151 -151 -195 -36 -44 -102
-127 -145 -185 -43 -58 -106 -139 -140 -180 -34 -41 -110 -138 -169 -215 -106
-139 -230 -299 -349 -449 -34 -43 -95 -122 -135 -175 -40 -53 -88 -114 -106
-136 l-34 -40 -28 21 c-15 11 -53 57 -84 101 -30 45 -109 143 -175 218 -66 76
-123 143 -128 151 -16 28 -289 275 -382 345 -54 41 -137 108 -184 149 -48 41
-126 109 -176 150 -113 95 -294 276 -368 367 -96 119 -205 290 -238 376 -112
292 -92 665 48 870 55 81 195 210 276 255 107 59 267 117 385 142 131 26 326
28 354 3 23 -21 35 -10 21 19 -53 112 -525 612 -778 823 -38 32 -98 85 -132
116 -66 61 -299 252 -434 355 -44 34 -85 66 -91 72 -14 14 7 50 35 63 37 15
378 3 522 -19z"/>
<path d="M3026 7791 c-11 -17 -1 -27 87 -86 186 -123 526 -429 710 -639 204
-231 317 -392 419 -595 88 -174 150 -386 121 -414 -3 -4 -36 24 -72 61 -119
122 -292 203 -530 248 -81 15 -106 16 -175 6 -291 -42 -467 -162 -573 -389
-34 -72 -37 -86 -41 -193 -5 -138 9 -205 70 -328 105 -214 273 -392 677 -717
68 -55 136 -109 150 -119 122 -91 387 -326 453 -400 44 -50 91 -103 105 -118
14 -16 31 -28 38 -28 7 0 57 57 111 126 113 144 346 441 416 529 26 33 79 101
117 150 38 50 103 133 145 185 41 52 123 158 182 235 59 77 128 165 153 195
26 30 73 89 104 130 31 41 88 116 127 165 39 50 90 115 113 145 23 30 77 99
120 153 82 102 109 145 101 159 -3 4 -255 8 -560 8 -431 0 -558 3 -568 13 -6
6 -37 57 -68 112 -107 190 -177 288 -310 437 -118 132 -207 218 -319 308 -130
104 -348 260 -364 260 -3 0 -22 11 -43 23 -109 69 -322 180 -432 226 -69 29
-134 56 -145 61 -11 5 -68 27 -127 50 -121 45 -182 58 -192 41z"/>
<path d="M2309 2533 c-38 -3 -48 -8 -53 -26 -8 -29 -7 -1005 0 -1034 6 -22 12
-23 94 -23 49 0 95 3 104 6 14 5 16 32 16 193 0 224 2 233 43 229 27 -3 33
-10 58 -68 39 -92 115 -227 156 -278 60 -73 111 -88 290 -83 47 1 73 21 73 55
0 18 -9 25 -39 34 -49 15 -122 79 -170 151 -44 64 -121 209 -121 227 0 7 23
29 51 50 59 46 86 85 105 157 39 148 -7 311 -104 364 -83 46 -277 64 -503 46z
m311 -141 c57 -28 75 -71 75 -184 0 -82 -3 -101 -21 -125 -26 -36 -117 -83
-161 -83 l-33 0 0 195 c0 174 2 195 18 204 26 16 83 12 122 -7z"/>
<path d="M4368 2533 c-32 -5 -35 -14 -47 -179 -6 -71 -24 -284 -41 -474 -17
-189 -30 -362 -28 -385 l3 -40 47 -3 c38 -2 49 1 57 16 5 10 17 97 26 193 43
483 43 482 72 494 23 8 27 2 72 -105 99 -238 269 -578 298 -597 23 -15 26 -15
43 3 10 10 45 78 78 149 33 72 80 173 105 225 25 52 61 133 81 180 47 109 80
172 92 171 14 0 22 -39 23 -116 1 -38 8 -119 17 -180 8 -60 21 -177 29 -259 8
-81 19 -154 26 -162 13 -16 194 -20 204 -5 3 6 -1 79 -10 163 -8 84 -22 227
-30 318 -9 91 -20 206 -26 255 -9 75 -26 277 -28 323 -1 10 -25 12 -103 10
l-103 -3 -17 -35 c-10 -19 -40 -84 -67 -145 -27 -60 -73 -159 -101 -220 -29
-60 -68 -150 -87 -200 -53 -136 -51 -133 -76 -94 -11 19 -37 73 -58 121 -21
48 -78 169 -127 270 -49 101 -97 204 -106 230 -30 77 -46 88 -124 87 -37 -1
-79 -4 -94 -6z"/>
<path d="M1525 2520 c-110 -3 -206 -9 -212 -13 -15 -9 -17 -65 -4 -86 6 -10
44 -15 137 -20 71 -4 134 -10 140 -14 19 -11 22 -53 13 -180 -5 -67 -5 -264
-1 -437 l7 -315 99 -3 c55 -1 103 1 107 5 4 4 11 214 15 466 5 313 11 460 18
465 6 4 69 9 139 12 147 6 157 11 157 87 l0 43 -207 -2 c-115 -1 -298 -5 -408
-8z"/>
<path d="M3182 2521 c-11 -6 -13 -85 -10 -412 5 -464 7 -476 84 -559 82 -87
215 -120 414 -102 202 18 327 116 371 292 11 42 14 142 14 420 l0 365 -70 3
c-38 2 -89 0 -112 -3 l-42 -6 -3 -434 c-3 -416 -4 -434 -23 -455 -43 -47 -72
-55 -206 -55 -144 0 -156 5 -191 82 -17 39 -18 71 -18 435 0 216 0 403 0 416
0 21 -3 22 -97 22 -54 0 -104 -4 -111 -9z"/>
<path d="M5793 2523 c-61 -4 -62 -4 -68 -36 -3 -18 -2 -257 3 -532 l7 -500 90
-3 c50 -1 96 2 103 6 9 6 13 113 18 458 3 247 7 459 10 472 4 19 11 22 52 22
54 0 114 -30 146 -73 17 -22 22 -47 25 -114 4 -94 -7 -146 -40 -187 -21 -26
-126 -86 -152 -86 -16 0 -10 -71 7 -82 22 -15 97 -7 175 17 147 47 239 161
249 311 5 87 -14 152 -64 218 -45 59 -103 92 -184 105 -61 10 -235 12 -377 4z"/>
<path d="M7115 2521 l-189 -6 -9 -38 c-7 -28 -5 -43 5 -59 14 -21 21 -22 151
-19 l137 3 1 -59 c1 -32 5 -245 8 -473 l6 -415 80 -3 c44 -2 90 0 102 3 l22 5
3 460 c2 297 7 463 13 469 6 6 49 11 95 12 183 2 210 12 210 80 l0 39 -88 0
c-49 0 -149 2 -223 4 -74 1 -219 0 -324 -3z"/>
<path d="M6567 2513 c-11 -19 -15 -369 -9 -698 l7 -360 107 0 c58 0 108 2 111
5 2 3 7 242 10 533 l6 527 -114 0 c-63 0 -116 -3 -118 -7z"/>
<path d="M1867 1010 c-40 -36 -46 -47 -52 -94 -8 -65 18 -134 61 -162 36 -24
122 -24 158 0 36 23 59 79 59 141 0 95 -52 155 -133 155 -41 0 -53 -5 -93 -40z
m127 -31 c33 -15 50 -67 41 -125 -14 -97 -115 -101 -144 -4 -15 49 -1 102 32
125 26 18 38 19 71 4z"/>
<path d="M2483 1040 c-12 -5 -24 -18 -28 -29 -6 -20 4 -249 11 -263 2 -3 13
-4 24 -1 16 4 20 14 20 50 0 58 21 55 65 -7 19 -27 41 -46 54 -48 41 -6 43 13
6 59 -40 51 -43 71 -14 98 31 29 28 85 -7 122 -22 23 -36 29 -68 28 -23 0 -51
-4 -63 -9z m107 -10 c11 -7 4 -10 -25 -9 -31 0 -36 2 -20 9 26 11 28 11 45 0z
m-40 -24 c0 -11 -19 -15 -25 -6 -3 5 1 10 9 10 9 0 16 -2 16 -4z m21 -36 c18
-10 18 -13 4 -40 -16 -31 -23 -34 -49 -24 -19 7 -21 45 -4 62 15 15 24 15 49
2z"/>
<path d="M2858 1031 c-17 -20 -54 -19 -42 0 3 5 -2 9 -10 9 -24 0 -28 -17 -8
-32 40 -28 51 -60 51 -151 0 -97 3 -107 31 -107 26 0 34 36 26 121 -5 59 -3
74 16 111 12 24 27 46 32 50 6 4 0 8 -14 8 -14 0 -34 3 -45 6 -13 3 -26 -3
-37 -15z m62 -5 c0 -9 -30 -14 -35 -6 -4 6 3 10 14 10 12 0 21 -2 21 -4z"/>
<path d="M1570 1020 c0 -10 18 -53 40 -95 28 -54 40 -88 40 -118 0 -46 13 -67
41 -67 14 0 19 13 25 67 5 46 17 87 40 131 32 60 43 102 28 102 -10 0 -44 -42
-44 -54 0 -6 -11 -24 -24 -41 l-24 -30 -22 50 c-23 56 -43 75 -77 75 -16 0
-23 -6 -23 -20z"/>
<path d="M2152 1028 c-8 -8 -12 -45 -12 -102 0 -112 23 -172 67 -181 15 -4 33
-8 39 -10 6 -2 32 1 58 7 59 12 74 40 83 147 8 101 -1 151 -27 151 -24 0 -28
-17 -33 -144 -3 -84 -6 -101 -23 -113 -17 -12 -60 -11 -74 4 -3 2 -7 61 -9
129 l-3 124 -27 0 c-15 0 -32 -5 -39 -12z"/>
<path d="M3077 1023 c4 -10 2 -14 -5 -9 -6 3 -13 2 -17 -3 -3 -6 -13 -7 -22
-4 -14 5 -15 1 -10 -33 4 -21 7 -80 7 -130 0 -98 -1 -95 52 -85 4 0 8 16 10
34 4 44 37 44 58 0 16 -35 55 -59 66 -42 3 6 -7 34 -22 64 -27 52 -28 54 -10
73 17 20 25 99 11 121 -7 12 -70 31 -102 31 -17 0 -21 -4 -16 -17z m73 -22 c7
-87 0 -112 -29 -104 -29 8 -37 47 -16 79 13 20 14 28 5 34 -7 5 -2 8 13 8 16
0 26 -6 27 -17z m-70 -165 c0 -3 -4 -8 -10 -11 -5 -3 -10 -1 -10 4 0 6 5 11
10 11 6 0 10 -2 10 -4z"/>
<path d="M3301 1020 c-9 -5 -12 -37 -9 -118 4 -138 13 -152 99 -152 50 0 63 4
90 28 l32 29 -2 104 c-1 57 -6 108 -11 113 -22 22 -32 -15 -33 -114 -2 -94 -4
-103 -26 -121 -31 -25 -66 -24 -85 3 -12 17 -16 48 -16 124 0 103 -8 124 -39
104z"/>
<path d="M3623 1022 c-14 -9 -44 -240 -33 -247 13 -8 20 8 20 44 0 59 12 111
25 111 6 0 20 -17 29 -37 40 -87 67 -133 80 -133 9 0 22 27 35 69 21 69 41 98
60 86 14 -8 31 -72 31 -117 0 -35 2 -38 30 -38 28 0 29 2 24 33 -3 17 -10 48
-15 67 -5 19 -9 63 -9 97 0 34 -5 65 -11 69 -23 14 -59 -19 -71 -64 -11 -46
-51 -102 -72 -102 -6 0 -29 38 -50 85 -37 82 -48 93 -73 77z"/>
<path d="M4002 1013 c-4 -10 -7 -58 -6 -108 3 -159 2 -155 23 -155 16 0 20 8
23 47 3 45 4 47 63 78 74 40 86 70 48 115 -14 18 -34 30 -48 30 -34 0 -43 -21
-17 -38 31 -20 29 -65 -3 -86 -14 -9 -30 -14 -35 -11 -13 8 -13 70 -1 113 9
30 8 32 -14 32 -14 0 -28 -8 -33 -17z"/>
<path d="M4295 1020 c-7 -12 -5 -220 3 -257 3 -17 11 -23 32 -23 16 0 30 6 33
13 5 15 -2 247 -8 265 -5 15 -51 16 -60 2z"/>
<path d="M4834 1017 c-2 -7 -3 -71 -2 -143 3 -121 4 -129 23 -129 19 0 20 8
23 134 2 101 -1 136 -10 143 -18 11 -28 10 -34 -5z"/>
<path d="M4990 1021 l-35 -6 28 -21 c26 -21 27 -24 27 -128 l0 -106 25 0 25 0
0 109 c0 105 1 110 25 129 l25 20 -31 6 c-34 7 -37 6 -89 -3z"/>
<path d="M5332 1020 c-48 -11 -74 -38 -70 -74 2 -24 14 -36 62 -65 55 -34 83
-71 70 -92 -3 -5 -35 -9 -70 -9 -48 0 -65 -3 -62 -12 8 -22 99 -21 136 2 26
16 32 26 32 54 0 27 -8 41 -37 66 -20 18 -49 37 -65 42 -37 13 -38 46 0 53 52
11 76 20 76 30 1 13 -31 15 -72 5z"/>
<path d="M5575 1021 c-54 -14 -74 -30 -85 -71 -16 -60 -3 -132 31 -169 24 -27
35 -31 79 -31 65 0 108 22 126 65 27 66 10 171 -33 193 -28 15 -84 21 -118 13z
m96 -52 c29 -41 36 -116 16 -156 -18 -34 -56 -47 -103 -34 -38 10 -54 43 -54
114 0 48 4 62 25 82 36 37 87 34 116 -6z"/>
<path d="M6555 1022 c-7 -4 -9 -56 -7 -140 3 -105 7 -135 19 -139 31 -12 35
12 26 148 -8 125 -14 148 -38 131z"/>
<path d="M7349 1007 c-32 -17 -45 -30 -47 -50 -4 -30 15 -50 82 -90 40 -23 47
-31 44 -55 -3 -25 -7 -27 -63 -32 -57 -5 -59 -6 -36 -19 52 -29 141 14 141 69
0 37 -21 62 -75 89 -36 18 -45 28 -43 44 2 16 13 23 46 30 26 5 42 14 42 23 0
21 -41 17 -91 -9z"/>
<path d="M4415 1010 c-3 -5 -1 -18 4 -29 6 -11 9 -53 6 -96 -5 -84 1 -128 17
-119 5 4 7 26 3 53 -7 50 7 101 27 101 8 0 49 -36 93 -80 44 -44 85 -80 92
-80 10 0 13 32 13 131 0 84 -4 128 -10 124 -5 -3 -10 -40 -10 -81 0 -62 -3
-74 -16 -74 -9 0 -53 36 -98 80 -78 76 -107 93 -121 70z"/>
<path d="M5812 888 l3 -133 44 -3 c63 -5 85 7 41 21 l-35 12 -3 118 -3 117
-25 0 -25 0 3 -132z"/>
<path d="M6009 1003 c0 -10 0 -54 1 -98 1 -68 5 -86 26 -119 l26 -38 61 7 c35
4 73 15 89 26 30 22 31 28 32 156 1 72 1 73 -25 73 l-26 0 5 -79 c6 -101 -9
-149 -46 -153 -50 -6 -80 3 -86 26 -3 11 -6 65 -6 119 0 97 0 97 -25 97 -17 0
-25 -6 -26 -17z"/>
<path d="M6340 1013 c0 -5 7 -17 15 -27 11 -15 15 -48 15 -124 0 -102 0 -103
23 -100 21 3 22 7 23 107 1 94 3 106 22 122 12 9 22 20 22 23 0 3 -27 6 -60 6
-33 0 -60 -3 -60 -7z"/>
<path d="M6704 984 c-60 -62 -58 -128 5 -194 34 -36 43 -40 85 -40 54 0 98 22
117 57 17 33 14 124 -5 162 -22 41 -44 51 -112 51 -52 0 -59 -3 -90 -36z m144
-6 c72 -78 47 -202 -41 -202 -46 0 -71 23 -87 80 -11 39 -10 50 5 85 10 22 26
44 34 49 28 16 67 11 89 -12z"/>
<path d="M7005 1007 c-8 -26 -14 -179 -8 -207 10 -54 21 -31 20 44 -1 41 1 78
5 81 7 8 30 -10 124 -97 56 -52 76 -65 93 -61 16 4 19 9 12 16 -7 7 -11 56
-11 119 0 65 -4 108 -10 108 -6 0 -10 -30 -10 -70 0 -102 -15 -104 -104 -8
-72 76 -104 98 -111 75z"/>
</g>
</svg>
