<?xml version="1.0" standalone="no"?>
<!DOCTYPE svg PUBLIC "-//W3C//DTD SVG 20010904//EN"
 "http://www.w3.org/TR/2001/REC-SVG-20010904/DTD/svg10.dtd">
<svg version="1.0" xmlns="http://www.w3.org/2000/svg"
 width="894.000000pt" height="884.000000pt" viewBox="0 0 894.000000 884.000000"
 preserveAspectRatio="xMidYMid meet">

<g transform="translate(0.000000,884.000000) scale(0.100000,-0.100000)"
fill="#4b4fb6" stroke="none">
<path d="M915 8515 c-49 -7 -133 -18 -185 -24 -101 -13 -365 -67 -463 -96 -32
-9 -70 -27 -84 -40 -26 -22 -26 -23 -10 -48 9 -14 47 -47 84 -73 385 -270
1009 -765 1270 -1008 43 -39 141 -126 218 -191 165 -140 788 -759 834 -827 57
-85 45 -95 -141 -113 -149 -15 -302 -49 -416 -91 -182 -69 -410 -183 -511
-256 -133 -98 -343 -325 -421 -457 -44 -74 -108 -242 -142 -376 -17 -68 -21
-121 -25 -349 -6 -298 4 -426 44 -606 108 -489 340 -861 853 -1369 230 -228
473 -441 762 -668 318 -251 445 -363 679 -600 341 -346 548 -600 814 -1001 58
-88 113 -163 121 -166 8 -3 20 -3 28 0 20 8 124 132 293 350 311 402 522 672
639 819 67 83 172 219 234 301 63 82 195 253 294 381 100 127 291 374 426 548
135 175 318 410 408 523 89 112 217 277 284 366 67 88 190 247 273 351 83 105
196 249 250 320 54 72 149 193 210 270 61 77 160 205 221 283 60 79 187 244
283 365 96 122 208 267 249 322 42 55 131 170 198 256 162 208 284 370 284
380 0 4 -24 11 -54 14 -29 4 -699 10 -1488 13 -1617 8 -1457 -2 -1519 89 -18
27 -98 132 -177 235 -223 289 -572 647 -845 865 -67 53 -164 133 -216 176 -99
82 -178 138 -396 277 -118 76 -350 200 -373 200 -5 0 -15 6 -21 14 -7 8 -24
17 -39 21 -14 3 -48 22 -74 41 -104 77 -454 223 -754 315 -89 27 -179 56 -200
65 -53 22 -396 108 -549 138 -352 67 -895 96 -1150 61z m550 -256 c469 -37
1180 -226 1619 -430 719 -334 1252 -702 1766 -1218 265 -267 384 -409 536
-637 l134 -201 77 -7 c43 -4 648 -11 1345 -14 860 -5 1270 -10 1277 -17 22
-22 -63 -149 -268 -399 -68 -83 -178 -223 -244 -311 -67 -88 -173 -225 -237
-305 -64 -80 -165 -210 -225 -290 -60 -80 -169 -221 -244 -315 -74 -93 -158
-199 -186 -235 -28 -36 -82 -107 -119 -159 -38 -51 -116 -153 -175 -225 -59
-72 -159 -198 -221 -281 -63 -82 -176 -226 -250 -320 -75 -93 -179 -226 -230
-295 -52 -69 -162 -210 -245 -315 -84 -104 -237 -300 -340 -435 -104 -135
-272 -351 -374 -480 -101 -129 -236 -302 -299 -385 -155 -202 -293 -375 -299
-375 -20 0 -97 80 -170 178 -178 241 -523 645 -657 773 -160 151 -397 357
-546 474 -138 108 -188 150 -541 451 -168 144 -540 514 -635 634 -119 149
-277 388 -344 520 -177 350 -214 911 -85 1297 32 95 102 229 157 300 53 69
226 235 313 301 185 139 550 280 835 323 174 26 444 24 499 -4 19 -9 38 -17
43 -17 38 0 -51 136 -212 325 -252 294 -788 838 -1025 1041 -44 38 -123 107
-175 154 -136 122 -537 454 -730 605 -226 176 -260 205 -260 221 0 23 60 83
88 88 43 7 494 -2 647 -15z"/>
<path d="M1857 7773 c-26 -26 3 -54 183 -178 346 -238 953 -804 1261 -1175
251 -301 363 -461 503 -712 123 -220 223 -463 267 -643 21 -87 25 -185 9 -185
-6 0 -49 37 -97 81 -47 45 -122 108 -165 140 -165 122 -427 227 -708 284 -158
32 -277 31 -445 -4 -404 -85 -659 -273 -820 -606 -70 -143 -79 -192 -78 -405
0 -214 15 -276 107 -466 113 -234 232 -393 475 -634 197 -197 411 -382 811
-701 466 -371 743 -620 947 -851 111 -125 137 -146 160 -126 40 33 535 658
1399 1768 242 311 487 624 545 696 89 113 620 793 761 977 56 73 103 156 93
165 -4 4 -133 8 -288 10 -851 8 -1564 20 -1577 26 -18 7 -49 56 -194 301 -121
204 -193 308 -333 479 -220 269 -418 465 -688 681 -163 130 -454 340 -538 387
-32 18 -115 66 -185 107 -70 40 -208 115 -307 167 -449 232 -1054 462 -1098
417z"/>
</g>
</svg>
