<?xml version="1.0" standalone="no"?>
<!DOCTYPE svg PUBLIC "-//W3C//DTD SVG 20010904//EN"
 "http://www.w3.org/TR/2001/REC-SVG-20010904/DTD/svg10.dtd">
<svg version="1.0" xmlns="http://www.w3.org/2000/svg"
 width="108.000000pt" height="109.000000pt" viewBox="0 0 108.000000 109.000000"
 preserveAspectRatio="xMidYMid meet">

<g transform="translate(0.000000,109.000000) scale(0.100000,-0.100000)"
fill="#000000" stroke="none">
<path d="M60 1067 c-62 -41 -60 -28 -58 -534 l3 -463 33 -32 32 -33 456 -3
c500 -3 502 -3 537 57 15 26 17 74 17 490 l0 461 -34 38 -34 37 -459 3 -459 3
-34 -24z m432 -145 c37 -18 82 -51 104 -75 l38 -42 94 -5 94 -5 -141 -181
-141 -182 -94 92 c-104 100 -131 145 -120 202 7 37 45 74 75 74 10 0 20 4 23
9 6 9 -120 131 -135 131 -5 0 -9 5 -9 11 0 8 24 10 73 8 57 -3 87 -11 139 -37z
m-207 -582 c-3 -5 -13 -10 -21 -10 -10 0 -14 -13 -14 -50 0 -27 -4 -50 -10
-50 -5 0 -10 23 -10 50 0 38 -4 50 -15 50 -8 0 -15 5 -15 10 0 6 21 10 46 10
27 0 43 -4 39 -10z m80 -36 c0 -22 6 -48 14 -57 11 -15 11 -17 -2 -17 -8 0
-25 12 -36 28 l-20 27 -1 -27 c0 -16 -4 -28 -10 -28 -6 0 -10 27 -10 61 l0 60
33 -3 c30 -3 32 -5 32 -44z m55 -3 c0 -31 5 -51 13 -54 27 -9 37 6 37 54 0 27
5 49 10 49 14 0 12 -94 -2 -108 -15 -15 -51 -15 -66 0 -14 14 -16 108 -2 108
6 0 10 -22 10 -49z m144 12 l18 -38 19 38 c11 20 23 37 28 37 10 0 21 -49 21
-91 0 -43 -19 -35 -26 12 l-7 40 -19 -43 -20 -43 -23 45 -24 45 -1 -37 c0 -20
-5 -40 -12 -44 -8 -5 -9 0 -5 17 4 13 7 41 7 62 0 49 21 49 44 0z m176 22 c16
-19 6 -45 -19 -52 -11 -3 -21 -14 -23 -26 -2 -11 -9 -22 -15 -25 -10 -3 -13
13 -13 57 0 61 0 61 29 61 16 0 34 -7 41 -15z m48 -42 c-4 -81 -28 -85 -28 -4
0 48 3 61 15 61 13 0 15 -11 13 -57z m102 47 c0 -5 -7 -10 -14 -10 -11 0 -16
-14 -18 -47 -2 -27 -7 -48 -13 -48 -5 0 -11 21 -13 48 -2 33 -7 47 -18 47 -7
0 -14 5 -14 10 0 6 20 10 45 10 25 0 45 -4 45 -10z m-523 -172 c-3 -8 -6 -5
-6 6 -1 11 2 17 5 13 3 -3 4 -12 1 -19z m-27 2 c0 -5 -4 -10 -10 -10 -5 0 -10
5 -10 10 0 6 5 10 10 10 6 0 10 -4 10 -10z m60 0 c0 -5 -4 -10 -10 -10 -5 0
-10 5 -10 10 0 6 5 10 10 10 6 0 10 -4 10 -10z"/>
<path d="M310 945 c0 -4 12 -17 28 -28 47 -37 112 -99 112 -107 0 -5 -13 -11
-29 -15 -52 -11 -81 -48 -81 -100 0 -46 2 -49 100 -145 l99 -97 121 154 c67
85 124 161 127 169 4 11 -9 14 -77 14 l-83 0 -48 49 c-59 61 -144 103 -215
109 -30 2 -54 1 -54 -3z m245 -137 c45 -50 50 -53 105 -58 l58 -5 -90 -113
-90 -112 -61 52 c-34 29 -70 62 -79 73 -22 26 -23 73 -1 97 20 22 80 24 110 3
44 -31 3 46 -59 109 -32 33 -58 62 -58 63 0 2 26 -10 59 -26 34 -18 77 -51
106 -83z"/>
<path d="M320 310 c0 -13 5 -20 13 -17 6 2 12 10 12 17 0 7 -6 15 -12 18 -8 2
-13 -5 -13 -18z"/>
<path d="M700 310 c0 -11 5 -20 10 -20 6 0 10 9 10 20 0 11 -4 20 -10 20 -5 0
-10 -9 -10 -20z"/>
</g>
</svg>
